<svg width="1280" height="360" viewBox="0 0 1280 360" fill="none" xmlns="http://www.w3.org/2000/svg">
  <defs>
    <linearGradient id="g" x1="0" y1="0" x2="1" y2="1">
      <stop offset="0%" stop-color="#f8fafc"/>
      <stop offset="100%" stop-color="#e2e8f0"/>
    </linearGradient>
    <filter id="soft-shadow" x="-20%" y="-20%" width="140%" height="140%">
      <feDropShadow dx="0" dy="10" stdDeviation="15" flood-color="#00000022"/>
    </filter>
  </defs>

  <!-- Background -->
  <rect width="1280" height="360" fill="url(#g)"/>
  <g opacity="0.25"><line x1="0" y1="0" x2="0" y2="360" stroke="#CBD5E122" stroke-width="1"/>
<line x1="32" y1="0" x2="32" y2="360" stroke="#CBD5E122" stroke-width="1"/>
<line x1="64" y1="0" x2="64" y2="360" stroke="#CBD5E122" stroke-width="1"/>
<line x1="96" y1="0" x2="96" y2="360" stroke="#CBD5E122" stroke-width="1"/>
<line x1="128" y1="0" x2="128" y2="360" stroke="#CBD5E122" stroke-width="1"/>
<line x1="160" y1="0" x2="160" y2="360" stroke="#CBD5E122" stroke-width="1"/>
<line x1="192" y1="0" x2="192" y2="360" stroke="#CBD5E122" stroke-width="1"/>
<line x1="224" y1="0" x2="224" y2="360" stroke="#CBD5E122" stroke-width="1"/>
<line x1="256" y1="0" x2="256" y2="360" stroke="#CBD5E122" stroke-width="1"/>
<line x1="288" y1="0" x2="288" y2="360" stroke="#CBD5E122" stroke-width="1"/>
<line x1="320" y1="0" x2="320" y2="360" stroke="#CBD5E122" stroke-width="1"/>
<line x1="352" y1="0" x2="352" y2="360" stroke="#CBD5E122" stroke-width="1"/>
<line x1="384" y1="0" x2="384" y2="360" stroke="#CBD5E122" stroke-width="1"/>
<line x1="416" y1="0" x2="416" y2="360" stroke="#CBD5E122" stroke-width="1"/>
<line x1="448" y1="0" x2="448" y2="360" stroke="#CBD5E122" stroke-width="1"/>
<line x1="480" y1="0" x2="480" y2="360" stroke="#CBD5E122" stroke-width="1"/>
<line x1="512" y1="0" x2="512" y2="360" stroke="#CBD5E122" stroke-width="1"/>
<line x1="544" y1="0" x2="544" y2="360" stroke="#CBD5E122" stroke-width="1"/>
<line x1="576" y1="0" x2="576" y2="360" stroke="#CBD5E122" stroke-width="1"/>
<line x1="608" y1="0" x2="608" y2="360" stroke="#CBD5E122" stroke-width="1"/>
<line x1="640" y1="0" x2="640" y2="360" stroke="#CBD5E122" stroke-width="1"/>
<line x1="672" y1="0" x2="672" y2="360" stroke="#CBD5E122" stroke-width="1"/>
<line x1="704" y1="0" x2="704" y2="360" stroke="#CBD5E122" stroke-width="1"/>
<line x1="736" y1="0" x2="736" y2="360" stroke="#CBD5E122" stroke-width="1"/>
<line x1="768" y1="0" x2="768" y2="360" stroke="#CBD5E122" stroke-width="1"/>
<line x1="800" y1="0" x2="800" y2="360" stroke="#CBD5E122" stroke-width="1"/>
<line x1="832" y1="0" x2="832" y2="360" stroke="#CBD5E122" stroke-width="1"/>
<line x1="864" y1="0" x2="864" y2="360" stroke="#CBD5E122" stroke-width="1"/>
<line x1="896" y1="0" x2="896" y2="360" stroke="#CBD5E122" stroke-width="1"/>
<line x1="928" y1="0" x2="928" y2="360" stroke="#CBD5E122" stroke-width="1"/>
<line x1="960" y1="0" x2="960" y2="360" stroke="#CBD5E122" stroke-width="1"/>
<line x1="992" y1="0" x2="992" y2="360" stroke="#CBD5E122" stroke-width="1"/>
<line x1="1024" y1="0" x2="1024" y2="360" stroke="#CBD5E122" stroke-width="1"/>
<line x1="1056" y1="0" x2="1056" y2="360" stroke="#CBD5E122" stroke-width="1"/>
<line x1="1088" y1="0" x2="1088" y2="360" stroke="#CBD5E122" stroke-width="1"/>
<line x1="1120" y1="0" x2="1120" y2="360" stroke="#CBD5E122" stroke-width="1"/>
<line x1="1152" y1="0" x2="1152" y2="360" stroke="#CBD5E122" stroke-width="1"/>
<line x1="1184" y1="0" x2="1184" y2="360" stroke="#CBD5E122" stroke-width="1"/>
<line x1="1216" y1="0" x2="1216" y2="360" stroke="#CBD5E122" stroke-width="1"/>
<line x1="1248" y1="0" x2="1248" y2="360" stroke="#CBD5E122" stroke-width="1"/>
<line x1="0" y1="0" x2="1280" y2="0" stroke="#CBD5E122" stroke-width="1"/>
<line x1="0" y1="32" x2="1280" y2="32" stroke="#CBD5E122" stroke-width="1"/>
<line x1="0" y1="64" x2="1280" y2="64" stroke="#CBD5E122" stroke-width="1"/>
<line x1="0" y1="96" x2="1280" y2="96" stroke="#CBD5E122" stroke-width="1"/>
<line x1="0" y1="128" x2="1280" y2="128" stroke="#CBD5E122" stroke-width="1"/>
<line x1="0" y1="160" x2="1280" y2="160" stroke="#CBD5E122" stroke-width="1"/>
<line x1="0" y1="192" x2="1280" y2="192" stroke="#CBD5E122" stroke-width="1"/>
<line x1="0" y1="224" x2="1280" y2="224" stroke="#CBD5E122" stroke-width="1"/>
<line x1="0" y1="256" x2="1280" y2="256" stroke="#CBD5E122" stroke-width="1"/>
<line x1="0" y1="288" x2="1280" y2="288" stroke="#CBD5E122" stroke-width="1"/>
<line x1="0" y1="320" x2="1280" y2="320" stroke="#CBD5E122" stroke-width="1"/>
<line x1="0" y1="352" x2="1280" y2="352" stroke="#CBD5E122" stroke-width="1"/></g>

  <!-- Left block -->
  <g transform="translate(40,40)">
    <text x="0" y="70" font-family="Inter, Segoe UI, Roboto, Ui-Sans-Serif" font-size="52" font-weight="800" fill="#0b1220" filter="url(#soft-shadow)">
      José Antônio
    </text>
    <text x="0" y="120" font-family="Inter, Segoe UI, Roboto, Ui-Sans-Serif" font-size="20" font-weight="600" fill="#0ea5e9">
      Platform Engineer · DevOps · SRE · Cloud · IaC · Agile
    </text>

    <text x="0" y="170" font-family="Inter, Segoe UI, Roboto, Ui-Sans-Serif" font-size="16" fill="#334155">
      Infra & Cloud · GitOps · Observability · FinOps · Security by Design
    </text>

    <!-- CTA badges -->
    <g transform="translate(0, 210)">
      <a href="mailto:joseantonionmfilho@gmail.com" target="_blank">
        <rect x="0" y="0" rx="8" ry="8" width="185" height="36" fill="#ffffff" stroke="#CBD5E1" stroke-width="1.5"/>
        <text x="92.5" y="24" text-anchor="middle" font-family="Inter, Segoe UI, Roboto, Ui-Sans-Serif" font-size="14" font-weight="600" fill="#0f172a">✉️  Contact</text>
      </a>
      <a href="https://www.linkedin.com/in/ZeAntonioNMF" target="_blank">
        <rect x="200" y="0" rx="8" ry="8" width="185" height="36" fill="#ffffff" stroke="#CBD5E1" stroke-width="1.5"/>
        <text x="292.5" y="24" text-anchor="middle" font-family="Inter, Segoe UI, Roboto, Ui-Sans-Serif" font-size="14" font-weight="600" fill="#0f172a">in  LinkedIn</text>
      </a>
      <a href="https://api.whatsapp.com/send/?phone=5562981156505" target="_blank">
        <rect x="400" y="0" rx="8" ry="8" width="185" height="36" fill="#ffffff" stroke="#CBD5E1" stroke-width="1.5"/>
        <text x="492.5" y="24" text-anchor="middle" font-family="Inter, Segoe UI, Roboto, Ui-Sans-Serif" font-size="14" font-weight="600" fill="#0f172a">WhatsApp</text>
      </a>
    </g>
  </g>

  <!-- Right chips -->
  <g filter="url(#soft-shadow)">
            <g>
              <rect x="762" y="136" rx="10" ry="10" width="150" height="36" 
                    fill="#ffffff" stroke="#CBD5E1" stroke-width="1.5" />
              <text x="837.0" y="159.0" text-anchor="middle" 
                    font-family="Inter, Segoe UI, Roboto, Ui-Sans-Serif" font-weight="600" font-size="16" fill="#0f172a">Kubernetes</text>
            </g>
            

            <g>
              <rect x="926" y="136" rx="10" ry="10" width="150" height="36" 
                    fill="#ffffff" stroke="#CBD5E1" stroke-width="1.5" />
              <text x="1001.0" y="159.0" text-anchor="middle" 
                    font-family="Inter, Segoe UI, Roboto, Ui-Sans-Serif" font-weight="600" font-size="16" fill="#0f172a">ArgoCD</text>
            </g>
            

            <g>
              <rect x="1090" y="136" rx="10" ry="10" width="150" height="36" 
                    fill="#ffffff" stroke="#CBD5E1" stroke-width="1.5" />
              <text x="1165.0" y="159.0" text-anchor="middle" 
                    font-family="Inter, Segoe UI, Roboto, Ui-Sans-Serif" font-weight="600" font-size="16" fill="#0f172a">Terraform</text>
            </g>
            

            <g>
              <rect x="762" y="184" rx="10" ry="10" width="150" height="36" 
                    fill="#ffffff" stroke="#CBD5E1" stroke-width="1.5" />
              <text x="837.0" y="207.0" text-anchor="middle" 
                    font-family="Inter, Segoe UI, Roboto, Ui-Sans-Serif" font-weight="600" font-size="16" fill="#0f172a">Datadog</text>
            </g>
            

            <g>
              <rect x="926" y="184" rx="10" ry="10" width="150" height="36" 
                    fill="#ffffff" stroke="#CBD5E1" stroke-width="1.5" />
              <text x="1001.0" y="207.0" text-anchor="middle" 
                    font-family="Inter, Segoe UI, Roboto, Ui-Sans-Serif" font-weight="600" font-size="16" fill="#0f172a">AWS</text>
            </g>
            

            <g>
              <rect x="1090" y="184" rx="10" ry="10" width="150" height="36" 
                    fill="#ffffff" stroke="#CBD5E1" stroke-width="1.5" />
              <text x="1165.0" y="207.0" text-anchor="middle" 
                    font-family="Inter, Segoe UI, Roboto, Ui-Sans-Serif" font-weight="600" font-size="16" fill="#0f172a">Azure</text>
            </g>
            

            <g>
              <rect x="762" y="232" rx="10" ry="10" width="150" height="36" 
                    fill="#ffffff" stroke="#CBD5E1" stroke-width="1.5" />
              <text x="837.0" y="255.0" text-anchor="middle" 
                    font-family="Inter, Segoe UI, Roboto, Ui-Sans-Serif" font-weight="600" font-size="16" fill="#0f172a">GCP</text>
            </g>
            

            <g>
              <rect x="926" y="232" rx="10" ry="10" width="150" height="36" 
                    fill="#ffffff" stroke="#CBD5E1" stroke-width="1.5" />
              <text x="1001.0" y="255.0" text-anchor="middle" 
                    font-family="Inter, Segoe UI, Roboto, Ui-Sans-Serif" font-weight="600" font-size="16" fill="#0f172a">GitOps</text>
            </g>
            

            <g>
              <rect x="1090" y="232" rx="10" ry="10" width="150" height="36" 
                    fill="#ffffff" stroke="#CBD5E1" stroke-width="1.5" />
              <text x="1165.0" y="255.0" text-anchor="middle" 
                    font-family="Inter, Segoe UI, Roboto, Ui-Sans-Serif" font-weight="600" font-size="16" fill="#0f172a">SRE</text>
            </g>
            

            <g>
              <rect x="762" y="280" rx="10" ry="10" width="150" height="36" 
                    fill="#ffffff" stroke="#CBD5E1" stroke-width="1.5" />
              <text x="837.0" y="303.0" text-anchor="middle" 
                    font-family="Inter, Segoe UI, Roboto, Ui-Sans-Serif" font-weight="600" font-size="16" fill="#0f172a">DevSecOps</text>
            </g>
            </g>

  <!-- Footer -->
  <g transform="translate(40,320)">
    <text x="0" y="-8" font-family="Inter, Segoe UI, Roboto, Ui-Sans-Serif" font-size="12" fill="#334155">
      © 2025 · ZévOps · GitHub Profile Banner
    </text>
  </g>
</svg>